<svg width="1128" height="240" viewBox="0 0 1128 240" fill="none" xmlns="http://www.w3.org/2000/svg">
<g clip-path="url(#clip0_691_1415)">
<rect width="1128" height="240" rx="20" fill="#F5FEDE"/>
<path d="M766 193.953C766 343.096 606.39 464 409.5 464C212.61 464 53 343.096 53 193.953C53 44.81 150.771 -200.428 409.5 -76.0942C507.271 -236.435 766 44.81 766 193.953Z" fill="#0B2447"/>
<path d="M178.629 64.8906H225.504L288.492 218.992H291.129L354.117 64.8906H400.992V277H364.371V131.102H362.32L303.434 276.414H276.188L217.301 130.516H215.543V277H178.629V64.8906ZM509.098 280.223C461.051 280.223 431.754 248.289 431.754 198.484C431.754 149.266 461.637 115.867 507.047 115.867C546.012 115.867 579.703 140.184 579.703 196.141V207.859H468.668C469.107 234.959 485.074 250.926 509.391 250.926C525.797 250.926 536.93 243.895 541.617 234.52H578.238C571.5 262.059 546.012 280.223 509.098 280.223ZM468.961 182.371H543.961C543.668 160.691 529.312 144.871 507.633 144.871C485.074 144.871 470.133 162.01 468.961 182.371Z" fill="#5D87FF"/>
<path d="M608.707 277V117.918H645.035V144.285H646.793C652.359 126.121 667.887 115.574 686.051 115.574C690.152 115.574 696.012 115.867 699.527 116.453V151.023C696.305 149.852 688.395 148.68 682.242 148.68C661.441 148.68 646.207 163.035 646.207 183.25V277H608.707ZM785.953 339.988C743.766 339.988 717.105 321.238 714.469 291.355H751.676C754.312 305.125 767.496 311.863 786.539 311.863C808.805 311.863 823.453 302.195 823.453 278.758V248.289H821.695C815.836 260.008 803.238 274.656 775.699 274.656C739.078 274.656 710.074 247.996 710.074 196.141C710.074 143.699 739.078 115.867 775.992 115.867C804.117 115.867 815.836 132.566 821.695 143.992H823.453V117.918H860.367V279.637C860.367 320.359 829.02 339.988 785.953 339.988ZM785.953 245.359C809.977 245.359 823.746 227.195 823.746 196.727C823.746 166.551 810.27 146.336 785.953 146.336C761.051 146.336 748.16 167.723 748.16 196.727C748.16 226.023 761.344 245.359 785.953 245.359ZM966.715 280.223C918.668 280.223 889.371 248.289 889.371 198.484C889.371 149.266 919.254 115.867 964.664 115.867C1003.63 115.867 1037.32 140.184 1037.32 196.141V207.859H926.285C926.725 234.959 942.691 250.926 967.008 250.926C983.414 250.926 994.547 243.895 999.234 234.52H1035.86C1029.12 262.059 1003.63 280.223 966.715 280.223ZM926.578 182.371H1001.58C1001.29 160.691 986.93 144.871 965.25 144.871C942.691 144.871 927.75 162.01 926.578 182.371Z" fill="#C7C7C7"/>
<g filter="url(#filter0_b_691_1415)">
<rect width="1128" height="240" fill="white" fill-opacity="0.02"/>
</g>
<path d="M217.663 52.8906C219.788 52.8906 221.678 53.5078 223.334 54.7422C224.991 55.9609 226.288 57.7031 227.225 59.9688C228.178 62.2188 228.663 64.8438 228.678 67.8438C228.663 70.875 228.178 73.5234 227.225 75.7891C226.288 78.0547 224.991 79.7969 223.334 81.0156C221.678 82.2344 219.788 82.8438 217.663 82.8438C215.522 82.8438 213.616 82.2344 211.944 81.0156C210.272 79.7812 208.967 78.0312 208.03 75.7656C207.092 73.5 206.631 70.8594 206.647 67.8438C206.631 64.8594 207.092 62.2344 208.03 59.9688C208.967 57.7031 210.272 55.9609 211.944 54.7422C213.616 53.5078 215.522 52.8906 217.663 52.8906ZM217.663 57.5781C216.475 57.5781 215.428 57.9922 214.522 58.8203C213.616 59.6328 212.913 60.8125 212.413 62.3594C211.913 63.8906 211.663 65.7188 211.663 67.8438C211.663 69.9844 211.913 71.8281 212.413 73.375C212.913 74.9219 213.616 76.1094 214.522 76.9375C215.428 77.75 216.475 78.1562 217.663 78.1562C218.866 78.1562 219.92 77.75 220.827 76.9375C221.733 76.1094 222.428 74.9219 222.913 73.375C223.413 71.8281 223.663 69.9844 223.663 67.8438C223.663 65.7188 223.413 63.8828 222.913 62.3359C222.428 60.7891 221.733 59.6094 220.827 58.7969C219.92 57.9844 218.866 57.5781 217.663 57.5781ZM239.459 66.0625H245.975V70.4688H239.459V92.1719H234.256V49.7969H239.459V66.0625ZM282.256 91.6562H252.35V77.5H264.444V73.3281H247.756V69.1562H286.381V73.3281H269.6V77.5H281.834V81.6719H257.6V87.4844H282.256V91.6562ZM281.459 65.7812H252.631V51.2969H281.459V65.7812ZM257.694 61.6562H276.303V55.4688H257.694V61.6562ZM323.225 65.9219H328.709V70.2812H323.225V92.1719H318.022V49.7031H323.225V65.9219ZM301.147 58.3281H295.428V77.1719C297.569 77.0625 299.584 76.8281 301.475 76.4688L301.897 80.7344C300.225 81.0625 298.655 81.2812 297.186 81.3906C295.733 81.4844 294.1 81.5312 292.288 81.5312H290.225V54.1094H301.147V58.3281ZM314.834 58.3281H308.553V77.1953C310.006 77.1641 311.28 77.0859 312.374 76.9609C313.467 76.8359 314.569 76.6406 315.678 76.375L316.1 80.6406C314.616 81.0156 313.147 81.2578 311.694 81.3672C310.241 81.4766 308.209 81.5312 305.6 81.5312H303.444V54.1094H314.834V58.3281ZM348.35 63.4844H355.241V53.6875H360.069V81.9062H343.428V53.6875H348.35V63.4844ZM355.241 77.6875V67.6094H348.35V77.6875H355.241ZM378.678 92.1719H373.663V70.4688H369.163V90.1094H364.241V50.5469H369.163V66.1562H373.663V49.7969H378.678V92.1719ZM422.319 87.25H383.6V82.8906H400.241V74.5469H386.928V70.4219H392.881V57.7656H386.788V53.5469H418.944V57.7656H412.756V70.4219H418.803V74.5469H405.397V82.8906H422.319V87.25ZM407.6 70.4219V57.7656H398.084V70.4219H407.6Z" fill="white"/>
<path d="M460.824 83L461.3 94.407C461.592 101.386 467.903 106.982 475.768 107.238L489 107.667L475.768 108.096C467.903 108.351 461.592 113.948 461.3 120.926L460.824 132.333L460.347 120.926C460.056 113.948 453.744 108.351 445.879 108.096L432.647 107.667L445.879 107.238C453.744 106.982 460.056 101.386 460.347 94.407L460.824 83Z" fill="white"/>
<path d="M9.99967 107.75C9.8616 107.75 9.74982 107.862 9.75 108C9.75018 108.138 9.86226 108.25 10.0003 108.25L9.99967 107.75ZM10.0003 108.25L440.984 107.686L440.984 107.186L9.99967 107.75L10.0003 108.25Z" fill="white"/>
<path d="M826 181L826.423 192.33C826.681 199.261 832.281 204.82 839.26 205.074L851 205.5L839.26 205.926C832.281 206.18 826.681 211.739 826.423 218.67L826 230L825.577 218.67C825.318 211.739 819.719 206.18 812.74 205.926L801 205.5L812.74 205.074C819.719 204.82 825.318 199.261 825.577 192.33L826 181Z" fill="white"/>
<path d="M86.9995 206.25C86.8614 206.25 86.7495 206.362 86.7495 206.5C86.7495 206.638 86.8614 206.75 86.9995 206.75L86.9995 206.25ZM86.9995 206.75H812L812 206.25H86.9995L86.9995 206.75Z" fill="white"/>
<path d="M428.109 152.703C428.109 155.234 428.078 157.414 428.016 159.242C427.969 161.055 427.836 163.133 427.617 165.477C427.398 167.82 427.047 170.375 426.562 173.141L421.266 172.672C421.781 170.094 422.156 167.656 422.391 165.359C422.625 163.047 422.766 160.984 422.812 159.172C422.875 157.344 422.906 155.188 422.906 152.703V152.141H398.484V147.922H428.109V152.703ZM433.031 180.359H394.406V176.094H433.031V180.359ZM475.125 153.828H469.312V158.562H475.125V162.922H469.312V168.688H464.109V143.797H469.312V149.562H475.125V153.828ZM455.484 169.25C458.344 169.234 460.844 169.57 462.984 170.258C465.125 170.945 466.781 171.93 467.953 173.211C469.125 174.477 469.719 175.969 469.734 177.688C469.719 179.438 469.125 180.945 467.953 182.211C466.781 183.492 465.125 184.469 462.984 185.141C460.844 185.828 458.344 186.172 455.484 186.172C452.594 186.172 450.062 185.828 447.891 185.141C445.734 184.469 444.07 183.492 442.898 182.211C441.727 180.945 441.141 179.438 441.141 177.688C441.141 175.969 441.727 174.477 442.898 173.211C444.086 171.93 445.758 170.945 447.914 170.258C450.07 169.57 452.594 169.234 455.484 169.25ZM455.484 173.422C452.562 173.422 450.289 173.789 448.664 174.523C447.039 175.258 446.234 176.312 446.25 177.688C446.234 179.062 447.039 180.125 448.664 180.875C450.305 181.625 452.578 182 455.484 182C458.328 182 460.555 181.625 462.164 180.875C463.773 180.125 464.578 179.062 464.578 177.688C464.578 176.312 463.773 175.258 462.164 174.523C460.555 173.789 458.328 173.422 455.484 173.422ZM442.969 161.398C448.969 161.32 454.75 160.734 460.312 159.641L460.922 163.859C454.906 165.078 448.625 165.688 442.078 165.688H441.234H437.719V146.281H442.969V161.398ZM495 157.484H501.891V147.688H506.719V175.906H490.078V147.688H495V157.484ZM501.891 171.688V161.609H495V171.688H501.891ZM525.328 186.172H520.312V164.469H515.812V184.109H510.891V144.547H515.812V160.156H520.312V143.797H525.328V186.172ZM568.969 181.25H530.25V176.891H546.891V168.547H533.578V164.422H539.531V151.766H533.438V147.547H565.594V151.766H559.406V164.422H565.453V168.547H552.047V176.891H568.969V181.25ZM554.25 164.422V151.766H544.734V164.422H554.25ZM603.797 154.719H583.031V150.547H590.906V145.016H596.062V150.547H603.797V154.719ZM593.484 156.969C595.266 156.969 596.852 157.391 598.242 158.234C599.648 159.062 600.742 160.227 601.523 161.727C602.32 163.227 602.719 164.922 602.719 166.812C602.719 168.734 602.32 170.453 601.523 171.969C600.742 173.484 599.648 174.672 598.242 175.531C596.852 176.375 595.266 176.797 593.484 176.797C591.719 176.797 590.133 176.375 588.727 175.531C587.32 174.672 586.219 173.484 585.422 171.969C584.625 170.453 584.234 168.734 584.25 166.812C584.234 164.922 584.625 163.227 585.422 161.727C586.219 160.227 587.32 159.062 588.727 158.234C590.133 157.391 591.719 156.969 593.484 156.969ZM593.484 161.281C592.562 161.281 591.75 161.516 591.047 161.984C590.344 162.438 589.797 163.086 589.406 163.93C589.016 164.758 588.828 165.719 588.844 166.812C588.828 167.938 589.016 168.922 589.406 169.766C589.797 170.609 590.344 171.258 591.047 171.711C591.75 172.148 592.562 172.359 593.484 172.344C594.391 172.359 595.195 172.148 595.898 171.711C596.602 171.258 597.148 170.609 597.539 169.766C597.93 168.922 598.125 167.938 598.125 166.812C598.125 165.719 597.93 164.758 597.539 163.93C597.148 163.086 596.602 162.438 595.898 161.984C595.195 161.516 594.391 161.281 593.484 161.281ZM619.547 186.172H614.578V165.453H610.453V184.25H605.578V144.688H610.453V161.234H614.578V143.797H619.547V186.172ZM670.406 167.844H640.688V147.5H670.078V151.719H645.844V163.672H670.406V167.844ZM674.719 180.781H636V176.469H674.719V180.781ZM712.781 167.328H707.531V143.844H712.781V167.328ZM699.188 158H684.844V162.266C689.016 162.219 692.438 162.125 695.109 161.984C697.781 161.828 700.516 161.516 703.312 161.047L703.969 165.266C700.812 165.766 697.703 166.102 694.641 166.273C691.594 166.445 687.828 166.531 683.344 166.531H679.734V154.016H694.031V149.984H679.641V145.766H699.188V158ZM689.906 173.328H707.578V169.203H712.781V185.656H684.703V169.203H689.906V173.328ZM707.578 181.438V177.359H689.906V181.438H707.578ZM754.312 186.172H749.156V143.797H754.312V186.172ZM726.562 171.078C733.141 170.969 739.406 170.328 745.359 169.156L746.016 173.516C742.5 174.25 739.016 174.773 735.562 175.086C732.125 175.383 728.625 175.531 725.062 175.531H721.406V147.922H726.562V171.078ZM793.641 159.875H800.156V164.141H793.641V186.219H788.438V143.797H793.641V159.875ZM782.016 152.047H767.391V171.5C770.812 171.5 773.898 171.398 776.648 171.195C779.398 170.992 782.188 170.641 785.016 170.141L785.625 174.547C782.562 175.078 779.531 175.43 776.531 175.602C773.547 175.773 769.938 175.859 765.703 175.859H762.188V147.828H782.016V152.047Z" fill="white"/>
<path d="M160 189L160.866 213.134L185 214L160.866 214.866L160 239L159.134 214.866L135 214L159.134 213.134L160 189Z" fill="white"/>
<path d="M1082.33 47.5979C1082.33 49.9221 1080.91 51.8062 1079.17 51.8062C1077.42 51.8062 1076 49.9221 1076 47.5979C1076 45.2737 1077.42 43.3895 1079.17 43.3895C1080.91 43.3895 1082.33 45.2737 1082.33 47.5979Z" fill="#0B2447" fill-opacity="0.5"/>
<path d="M1077.06 22.6136C1077.06 21.3903 1077.98 20.5001 1079.17 20.3987H1080.22C1081.39 20.3987 1082.33 21.3903 1082.33 22.6136V40.1779C1082.33 41.4012 1081.39 42.3928 1080.22 42.3928H1079.17C1078 42.3928 1077.06 41.4012 1077.06 40.1779V22.6136Z" fill="#CAF663"/>
<path d="M1077.38 24.2637C1076.8 23.2017 1077.04 21.342 1078.05 20.735L1078.53 20.5001L1079.17 20.3987C1080.22 20.1883 1081.83 20.5427 1082.35 21.7237L1087.37 30.943C1088.09 32.2706 1087.65 33.9618 1086.39 34.7205C1085.12 35.4793 1083.51 35.0181 1082.79 33.6906L1077.38 24.2637Z" fill="#0B2447" fill-opacity="0.7"/>
<path d="M1092.11 25.5373C1092.05 25.5373 1092 25.4877 1092 25.4265V20.1107C1092 20.0496 1092.05 20 1092.11 20H1107.89C1107.95 20 1108 20.0496 1108 20.1107V25.4265C1108 25.4877 1107.95 25.5373 1107.89 25.5373H1092.11Z" fill="#0B2447" fill-opacity="0.9"/>
<path d="M1102.72 20.1107C1102.72 20.0496 1102.77 20 1102.83 20L1107.89 20C1107.95 20 1108 20.0496 1108 20.1107V51.6955C1108 51.7566 1107.95 51.8062 1107.89 51.8062H1102.83C1102.77 51.8062 1102.72 51.7566 1102.72 51.6955V20.1107Z" fill="#0B2447" fill-opacity="0.5"/>
<path d="M1092 20.1518C1092 20.0906 1092.05 20.0409 1092.11 20.0407L1095.17 20.0297C1096.33 20.0255 1097.28 21.0138 1097.28 22.2371L1097.37 49.7737C1097.38 50.997 1096.44 51.992 1095.27 51.9962L1094.21 52C1093.05 52.0042 1092.1 51.0159 1092.1 49.7926L1092 20.1518Z" fill="#ADADAD"/>
<path d="M1092.58 51.2303C1093.4 52.1606 1094.21 51.9613 1095.27 52L1096.24 51.6609C1097.25 51.0539 1097.6 49.7009 1097.03 48.6389L1087.44 31.0419C1086.72 29.7144 1085.11 29.2532 1083.84 30.012C1082.58 30.7707 1082.14 32.462 1082.86 33.7895L1092.58 51.2303Z" fill="#2A62FF" fill-opacity="0.5"/>
</g>
<defs>
<filter id="filter0_b_691_1415" x="-100" y="-100" width="1328" height="440" filterUnits="userSpaceOnUse" color-interpolation-filters="sRGB">
<feFlood flood-opacity="0" result="BackgroundImageFix"/>
<feGaussianBlur in="BackgroundImageFix" stdDeviation="50"/>
<feComposite in2="SourceAlpha" operator="in" result="effect1_backgroundBlur_691_1415"/>
<feBlend mode="normal" in="SourceGraphic" in2="effect1_backgroundBlur_691_1415" result="shape"/>
</filter>
<clipPath id="clip0_691_1415">
<rect width="1128" height="240" rx="20" fill="white"/>
</clipPath>
</defs>
</svg>
