<svg width="20" height="20" viewBox="0 0 20 20" fill="none" xmlns="http://www.w3.org/2000/svg">
<path d="M9.1665 9.99992C9.1665 10.2209 9.2543 10.4329 9.41058 10.5892C9.56686 10.7455 9.77882 10.8333 9.99984 10.8333C10.2209 10.8333 10.4328 10.7455 10.5891 10.5892C10.7454 10.4329 10.8332 10.2209 10.8332 9.99992C10.8332 9.7789 10.7454 9.56694 10.5891 9.41066C10.4328 9.25438 10.2209 9.16659 9.99984 9.16659C9.77882 9.16659 9.56686 9.25438 9.41058 9.41066C9.2543 9.56694 9.1665 9.7789 9.1665 9.99992Z" stroke="#474747" stroke-width="2" stroke-linecap="round" stroke-linejoin="round"/>
<path d="M9.1665 15.8333C9.1665 16.0543 9.2543 16.2662 9.41058 16.4225C9.56686 16.5788 9.77882 16.6666 9.99984 16.6666C10.2209 16.6666 10.4328 16.5788 10.5891 16.4225C10.7454 16.2662 10.8332 16.0543 10.8332 15.8333C10.8332 15.6122 10.7454 15.4003 10.5891 15.244C10.4328 15.0877 10.2209 14.9999 9.99984 14.9999C9.77882 14.9999 9.56686 15.0877 9.41058 15.244C9.2543 15.4003 9.1665 15.6122 9.1665 15.8333Z" stroke="#474747" stroke-width="2" stroke-linecap="round" stroke-linejoin="round"/>
<path d="M9.1665 4.16659C9.1665 4.3876 9.2543 4.59956 9.41058 4.75584C9.56686 4.91212 9.77882 4.99992 9.99984 4.99992C10.2209 4.99992 10.4328 4.91212 10.5891 4.75584C10.7454 4.59956 10.8332 4.3876 10.8332 4.16659C10.8332 3.94557 10.7454 3.73361 10.5891 3.57733C10.4328 3.42105 10.2209 3.33325 9.99984 3.33325C9.77882 3.33325 9.56686 3.42105 9.41058 3.57733C9.2543 3.73361 9.1665 3.94557 9.1665 4.16659Z" stroke="#474747" stroke-width="2" stroke-linecap="round" stroke-linejoin="round"/>
</svg>
