<svg width="28" height="28" viewBox="0 0 28 28" fill="none" xmlns="http://www.w3.org/2000/svg">
<path d="M5.5409 24.1481C5.5409 26.1818 4.30053 27.8304 2.77045 27.8304C1.24037 27.8304 0 26.1818 0 24.1481C0 22.1145 1.24037 20.4658 2.77045 20.4658C4.30053 20.4658 5.5409 22.1145 5.5409 24.1481Z" fill="#0B2447" fill-opacity="0.5"/>
<path d="M0.923483 2.2869C0.923483 1.21654 1.73615 0.437574 2.77045 0.34885H3.69393C4.71398 0.34885 5.5409 1.21655 5.5409 2.2869V17.6557C5.5409 18.726 4.71398 19.5937 3.69393 19.5937H2.77045C1.7504 19.5937 0.923483 18.726 0.923483 17.6557V2.2869Z" fill="#CAF663"/>
<path d="M1.20976 3.73075C0.703617 2.80146 0.905938 1.17424 1.79156 0.643133L2.21636 0.437574L2.77045 0.34885C3.69393 0.164734 5.09763 0.474823 5.55331 1.50821L9.94699 9.57512C10.5797 10.7367 10.1951 12.2166 9.08812 12.8805C7.9811 13.5444 6.57079 13.1409 5.9381 11.9793L1.20976 3.73075Z" fill="#0B2447" fill-opacity="0.7"/>
<path d="M14.0923 4.84513C14.0413 4.84513 14 4.80175 14 4.74823V0.0969025C14 0.0433847 14.0413 0 14.0923 0H27.9077C27.9587 0 28 0.0433848 28 0.0969026V4.74823C28 4.80175 27.9587 4.84513 27.9077 4.84513H14.0923Z" fill="#0B2447" fill-opacity="0.9"/>
<path d="M23.3826 0.0969019C23.3826 0.0433841 23.4239 9.24135e-08 23.4749 9.24135e-08L27.9077 0C27.9587 0 28 0.0433848 28 0.0969026V27.7335C28 27.787 27.9587 27.8304 27.9077 27.8304H23.4749C23.4239 27.8304 23.3826 27.787 23.3826 27.7335V0.0969019Z" fill="#0B2447" fill-opacity="0.5"/>
<path d="M14.0003 0.132818C14.0001 0.0793004 14.0413 0.0357682 14.0923 0.0355856L16.7704 0.025995C17.7905 0.0223421 18.6202 0.887071 18.6237 1.95742L18.7021 26.052C18.7055 27.1224 17.8815 27.993 16.8614 27.9967L15.9379 28C14.9179 28.0036 14.0882 27.1389 14.0847 26.0686L14.0003 0.132818Z" fill="#ADADAD"/>
<path d="M14.5079 27.3265C15.2282 28.1405 15.9379 27.9661 16.8614 28L17.7111 27.7033C18.5967 27.1722 18.9043 25.9883 18.3982 25.059L10.012 9.6617C9.3793 8.50008 7.96899 8.09659 6.86196 8.76047C5.75494 9.42435 5.37041 10.9042 6.00309 12.0658L14.5079 27.3265Z" fill="#2A62FF" fill-opacity="0.5"/>
</svg>
