<svg width="52" height="72" viewBox="0 0 52 72" fill="none" xmlns="http://www.w3.org/2000/svg">
<path d="M26 6.66669V23.3334M26 6.66669L32.6667 13.3334M26 6.66669L19.3333 13.3334M12.6667 33.3334H39.3333" stroke="#7A7A7A" stroke-width="3" stroke-linecap="round" stroke-linejoin="round"/>
<path d="M11.8148 66.7812H0.521805V65.5234H5.38899V63.5137H1.86165V59.4668H8.97102V57.9355H1.8343V56.7051H10.4749V60.6699H3.37923V62.2695H10.762V63.5137H6.8929V65.5234H11.8148V66.7812ZM22.7253 58.1816V58.332C22.7207 59.0156 22.707 59.6104 22.6842 60.1162C22.666 60.6175 22.6227 61.2008 22.5544 61.8662C22.486 62.527 22.3789 63.2448 22.2331 64.0195L20.7018 63.8555C20.8477 63.1354 20.9548 62.4564 21.0231 61.8184C21.0915 61.1758 21.1348 60.6061 21.153 60.1094C21.1758 59.6126 21.1895 59.0293 21.194 58.3594V58.209H13.8112V56.9922H22.7253V58.1816ZM23.901 66.6172H12.6354V65.373H16.7917V61.0801H18.2956V65.373H23.901V66.6172ZM39.3646 62.8301H28.0853V61.5859H39.3646V62.8301ZM38.0658 60.6152H29.4661V56.2539H37.9974V57.4844H30.9837V59.3984H38.0658V60.6152ZM33.7044 63.6914C34.5885 63.6868 35.3496 63.7734 35.9876 63.9512C36.6302 64.1243 37.1224 64.3796 37.4642 64.7168C37.806 65.054 37.9792 65.4596 37.9837 65.9336C37.9792 66.4121 37.806 66.82 37.4642 67.1572C37.1224 67.499 36.6325 67.7588 35.9945 67.9365C35.3564 68.1143 34.5931 68.2031 33.7044 68.2031C32.8066 68.2031 32.0342 68.1143 31.387 67.9365C30.7445 67.7588 30.2523 67.499 29.9105 67.1572C29.5687 66.82 29.3978 66.4121 29.3978 65.9336C29.3978 65.4596 29.5687 65.054 29.9105 64.7168C30.2523 64.3796 30.7467 64.1243 31.3939 63.9512C32.041 63.7734 32.8112 63.6868 33.7044 63.6914ZM33.7044 64.8535C32.8021 64.8535 32.1139 64.9469 31.64 65.1338C31.166 65.3161 30.9336 65.5827 30.9427 65.9336C30.9382 66.2936 31.1706 66.5671 31.64 66.7539C32.1094 66.9362 32.7975 67.0273 33.7044 67.0273C34.5931 67.0273 35.2744 66.9362 35.7484 66.7539C36.2223 66.5671 36.4616 66.2936 36.4661 65.9336C36.4616 65.5872 36.2201 65.3206 35.7415 65.1338C35.2676 64.9469 34.5885 64.8535 33.7044 64.8535ZM51.4782 63.7734H40.1852V62.543H45.0798V61.5176H41.6208V58.2363H48.5661V57.3203H41.5798V56.1309H50.0837V59.3438H43.1247V60.3281H50.3298V61.5176H46.5837V62.543H51.4782V63.7734ZM50.152 68.1348H48.6208V65.7559H41.443V64.5527H50.152V68.1348Z" fill="#7A7A7A"/>
</svg>
