<svg width="151" height="68" viewBox="0 0 151 68" fill="none" xmlns="http://www.w3.org/2000/svg">
<path d="M75 4.66666V16.3333M75 4.66666L79.6666 9.33332M75 4.66666L70.3333 9.33332M65.6666 23.3333H84.3333" stroke="#7A7A7A" stroke-width="2" stroke-linecap="round" stroke-linejoin="round"/>
<path d="M5.38725 55.1094C5.38725 57.5625 7.01225 60.0781 8.981 61.0469L8.231 62.0312C6.69975 61.2266 5.4185 59.5859 4.80913 57.6562C4.18413 59.7109 2.87163 61.4609 1.30913 62.2969L0.527878 61.3125C2.55913 60.3125 4.1685 57.6406 4.18413 55.1094V52.5781H5.38725V55.1094ZM11.481 51.375V57.0156H13.8091V58.0781H11.481V65.2656H10.2623V51.375H11.481ZM19.5831 54.3594C19.5831 56.2344 21.0675 57.9219 23.1456 58.5781L22.5206 59.5625C20.9034 59.0156 19.6144 57.875 18.9894 56.4062C18.38 57.9922 17.0753 59.2422 15.4269 59.8438L14.7863 58.8594C16.8644 58.125 18.3488 56.3281 18.3488 54.3594V53.5469H15.0988V52.5469H22.7863V53.5469H19.5831V54.3594ZM26.0519 51.3906V61.5781H24.8331V51.3906H26.0519ZM26.4894 63.9375V64.9688H17.0831V60.6094H18.3019V63.9375H26.4894ZM34.7634 51.625C37.8571 51.625 39.6696 52.4688 39.6696 54.0156C39.6696 55.5938 37.8571 56.4375 34.7634 56.4531C31.6696 56.4375 29.8415 55.5938 29.8415 54.0156C29.8415 52.4688 31.6696 51.625 34.7634 51.625ZM34.7634 52.5469C32.4509 52.5469 31.1071 53.1094 31.1228 54.0156C31.1071 54.9844 32.4509 55.5156 34.7634 55.5156C37.0603 55.5156 38.4196 54.9844 38.4196 54.0156C38.4196 53.1094 37.0603 52.5469 34.7634 52.5469ZM41.0915 57.3906V58.3906H28.4353V57.3906H41.0915ZM39.4665 59.5938V62.7031H31.2165V64.1406H39.8884V65.1094H29.9978V61.7969H38.2634V60.5312H29.9665V59.5938H39.4665ZM50.1551 52.0312C52.0223 52.0156 53.4364 53.1016 53.702 54.7031H56.6083V51.375H57.8426V58.8281H56.6083V55.7188H53.7176C53.4676 57.3594 52.0379 58.4531 50.1551 58.4531C48.0458 58.4531 46.5458 57.1406 46.5458 55.2344C46.5458 53.3438 48.0458 52.0156 50.1551 52.0312ZM50.1551 53.0781C48.7333 53.0625 47.7176 53.9531 47.7176 55.2344C47.7176 56.5 48.7333 57.4219 50.1551 57.4219C51.5614 57.4219 52.5614 56.5 52.5614 55.2344C52.5614 53.9531 51.5614 53.0625 50.1551 53.0781ZM50.1239 59.5312V61.2969H56.6083V59.5312H57.8426V65.0781H48.8895V59.5312H50.1239ZM50.1239 64.0781H56.6083V62.2812H50.1239V64.0781ZM72.8979 62.5156V63.5469H60.1791V62.5156H65.8979V59.8906H61.7729V55.6094H70.0854V53.4219H61.7416V52.4062H71.2885V56.6094H62.9916V58.875H71.6166V59.8906H67.101V62.5156H72.8979ZM85.25 58.0625V59.0781H75.6562V52.6719H85.1094V53.6875H76.875V58.0625H85.25ZM86.75 62.3438V63.375H74.0312V62.3438H86.75ZM98.8605 53.7812V54.7812H91.8918V53.7812H94.7824V51.7969H96.0011V53.7812H98.8605ZM95.3761 55.7188C97.1261 55.7188 98.3761 57.0312 98.3918 58.875C98.3761 60.7344 97.1261 62.0625 95.3761 62.0625C93.6418 62.0625 92.3918 60.7344 92.3918 58.875C92.3918 57.0312 93.6418 55.7188 95.3761 55.7188ZM95.3761 56.75C94.2824 56.7656 93.4855 57.6562 93.4855 58.875C93.4855 60.1094 94.2824 61 95.3761 60.9844C96.4855 61 97.298 60.1094 97.298 58.875C97.298 57.6562 96.4855 56.7656 95.3761 56.75ZM103.751 51.375V65.2656H102.579V58.25H100.736V64.5781H99.5793V51.7188H100.736V57.2344H102.579V51.375H103.751ZM112.791 53.3438C112.775 55.2031 115.26 56.7812 117.681 57.1406L117.228 58.1094C115.056 57.7422 112.947 56.5859 112.103 54.9062C111.26 56.5859 109.142 57.7422 107.01 58.1094L106.525 57.1406C108.931 56.7812 111.416 55.2031 111.416 53.3438V53.25H106.963V52.25H117.228V53.25H112.791V53.3438ZM118.431 59.2969V60.3125H112.681V65.2656H111.478V60.3125H105.775V59.2969H118.431ZM123.752 55.3281C123.752 57.5312 124.83 59.9219 126.674 61.0156L125.971 61.9688C124.635 61.1562 123.674 59.6719 123.19 57.9844C122.674 59.8281 121.643 61.4141 120.252 62.2656L119.471 61.3438C121.393 60.2188 122.565 57.75 122.565 55.375V52.6875H123.752V55.3281ZM131.534 51.375V65.2656H130.346V51.375H131.534ZM128.659 51.6719V64.5625H127.502V57.4062H125.143V56.3594H127.502V51.6719H128.659ZM146.198 62.4531V63.4844H133.479V62.4531H136.636V58.7031C135.448 58.0859 134.729 57.0859 134.729 55.8281C134.729 53.6719 136.839 52.2656 139.808 52.25C142.776 52.2656 144.886 53.6719 144.886 55.8281C144.886 57.0625 144.19 58.0547 143.042 58.6719V62.4531H146.198ZM139.808 53.2656C137.526 53.25 135.917 54.2812 135.917 55.8281C135.917 57.375 137.526 58.4219 139.808 58.4219C142.073 58.4219 143.698 57.375 143.698 55.8281C143.698 54.2812 142.073 53.25 139.808 53.2656ZM137.839 62.4531H141.808V59.1406C141.206 59.3047 140.534 59.3906 139.808 59.3906C139.097 59.3906 138.433 59.3125 137.839 59.1562V62.4531ZM148.8 64.0938C148.253 64.0938 147.785 63.6406 147.8 63.0781C147.785 62.5312 148.253 62.0781 148.8 62.0781C149.347 62.0781 149.8 62.5312 149.8 63.0781C149.8 63.6406 149.347 64.0938 148.8 64.0938Z" fill="#7A7A7A"/>
</svg>
