<svg width="945" height="989" viewBox="0 0 945 989" fill="none" xmlns="http://www.w3.org/2000/svg">
<rect width="945" height="989" fill="url(#paint0_linear_370_98)"/>
<path d="M111.469 218L97.125 167.094H106.969L116.18 204.57H116.672L126.445 167.094H135.445L145.289 204.641H145.711L154.922 167.094H164.766L150.422 218H141.352L131.156 182.211H130.805L120.539 218H111.469ZM183.188 218.773C171.656 218.773 164.625 211.109 164.625 199.156C164.625 187.344 171.797 179.328 182.695 179.328C192.047 179.328 200.133 185.164 200.133 198.594V201.406H173.484C173.59 207.91 177.422 211.742 183.258 211.742C187.195 211.742 189.867 210.055 190.992 207.805H199.781C198.164 214.414 192.047 218.773 183.188 218.773ZM173.555 195.289H191.555C191.484 190.086 188.039 186.289 182.836 186.289C177.422 186.289 173.836 190.402 173.555 195.289ZM216.094 167.094V218H207.094V167.094H216.094ZM241.336 218.773C229.945 218.773 223.055 210.617 223.055 199.086C223.055 187.414 230.156 179.328 241.336 179.328C250.617 179.328 257.086 184.742 257.719 192.969H249.141C248.438 189.312 245.766 186.5 241.406 186.5C235.852 186.5 232.125 191.211 232.125 198.875C232.125 206.75 235.781 211.461 241.406 211.461C245.414 211.461 248.367 209.141 249.141 204.992H257.719C257.016 213.078 250.898 218.773 241.336 218.773ZM281.133 218.773C270.023 218.773 262.852 210.898 262.852 199.086C262.852 187.203 270.023 179.328 281.133 179.328C292.312 179.328 299.414 187.203 299.414 199.086C299.414 210.898 292.312 218.773 281.133 218.773ZM281.203 211.602C287.32 211.602 290.344 206.047 290.344 199.016C290.344 192.055 287.32 186.43 281.203 186.43C274.945 186.43 271.922 192.055 271.922 199.016C271.922 206.047 274.945 211.602 281.203 211.602ZM306.375 218V179.82H314.953V186.289H315.445C316.992 181.93 320.859 179.328 325.922 179.328C331.125 179.328 334.781 181.93 336.258 186.289H336.68C338.367 182.07 342.586 179.328 348.141 179.328C355.102 179.328 360.023 183.828 360.023 192.336V218H351.094V193.742C351.094 188.961 348.211 186.852 344.555 186.852C340.125 186.852 337.594 189.875 337.594 194.164V218H328.875V193.391C328.875 189.453 326.203 186.852 322.406 186.852C318.539 186.852 315.375 190.016 315.375 194.797V218H306.375ZM385.547 218.773C374.016 218.773 366.984 211.109 366.984 199.156C366.984 187.344 374.156 179.328 385.055 179.328C394.406 179.328 402.492 185.164 402.492 198.594V201.406H375.844C375.949 207.91 379.781 211.742 385.617 211.742C389.555 211.742 392.227 210.055 393.352 207.805H402.141C400.523 214.414 394.406 218.773 385.547 218.773ZM375.914 195.289H393.914C393.844 190.086 390.398 186.289 385.195 186.289C379.781 186.289 376.195 190.402 375.914 195.289Z" fill="#FAFAFA"/>
<path d="M108.227 282H98.6172V253.719H108.383C116.82 253.719 121.938 259.031 121.938 267.82C121.938 276.648 116.82 282 108.227 282ZM103.695 277.586H107.953C113.852 277.586 116.859 274.344 116.859 267.82C116.859 261.336 113.852 258.133 108.109 258.133H103.695V277.586ZM141.82 261.492C141.586 259.07 139.516 257.664 136.469 257.664C133.266 257.664 131.312 259.227 131.312 261.336C131.312 263.719 133.812 264.695 136.156 265.242L138.812 265.945C143.031 266.922 147.094 269.148 147.094 274.07C147.094 279.031 143.188 282.43 136.391 282.43C129.789 282.43 125.648 279.266 125.414 273.68H130.414C130.648 276.648 133.148 278.094 136.352 278.094C139.711 278.094 142.016 276.453 142.016 274.031C142.016 271.805 139.945 270.867 136.898 270.086L133.695 269.266C129.047 268.055 126.156 265.711 126.156 261.648C126.156 256.648 130.609 253.328 136.547 253.328C142.562 253.328 146.625 256.727 146.703 261.492H141.82ZM151.312 253.719H157.562L165.961 274.266H166.312L174.711 253.719H180.961V282H176.078V262.547H175.805L167.953 281.922H164.32L156.469 262.469H156.234V282H151.312V253.719Z" fill="#5D87FF"/>
<path d="M195.453 282V260.789H200.219V264.383H200.492C201.352 261.961 203.5 260.516 206.312 260.516C209.203 260.516 211.234 261.961 212.055 264.383H212.289C213.227 262.039 215.57 260.516 218.656 260.516C222.523 260.516 225.258 263.016 225.258 267.742V282H220.297V268.523C220.297 265.867 218.695 264.695 216.664 264.695C214.203 264.695 212.797 266.375 212.797 268.758V282H207.953V268.328C207.953 266.141 206.469 264.695 204.359 264.695C202.211 264.695 200.453 266.453 200.453 269.109V282H195.453ZM239.438 282.43C233.031 282.43 229.125 278.172 229.125 271.531C229.125 264.969 233.109 260.516 239.164 260.516C244.359 260.516 248.852 263.758 248.852 271.219V272.781H234.047C234.105 276.395 236.234 278.523 239.477 278.523C241.664 278.523 243.148 277.586 243.773 276.336H248.656C247.758 280.008 244.359 282.43 239.438 282.43ZM234.086 269.383H244.086C244.047 266.492 242.133 264.383 239.242 264.383C236.234 264.383 234.242 266.668 234.086 269.383ZM252.719 282V260.789H257.562V264.305H257.797C258.539 261.883 260.609 260.477 263.031 260.477C263.578 260.477 264.359 260.516 264.828 260.594V265.203C264.398 265.047 263.344 264.891 262.523 264.891C259.75 264.891 257.719 266.805 257.719 269.5V282H252.719ZM276.352 290.398C270.727 290.398 267.172 287.898 266.82 283.914H271.781C272.133 285.75 273.891 286.648 276.43 286.648C279.398 286.648 281.352 285.359 281.352 282.234V278.172H281.117C280.336 279.734 278.656 281.688 274.984 281.688C270.102 281.688 266.234 278.133 266.234 271.219C266.234 264.227 270.102 260.516 275.023 260.516C278.773 260.516 280.336 262.742 281.117 264.266H281.352V260.789H286.273V282.352C286.273 287.781 282.094 290.398 276.352 290.398ZM276.352 277.781C279.555 277.781 281.391 275.359 281.391 271.297C281.391 267.273 279.594 264.578 276.352 264.578C273.031 264.578 271.312 267.43 271.312 271.297C271.312 275.203 273.07 277.781 276.352 277.781ZM300.453 282.43C294.047 282.43 290.141 278.172 290.141 271.531C290.141 264.969 294.125 260.516 300.18 260.516C305.375 260.516 309.867 263.758 309.867 271.219V272.781H295.062C295.121 276.395 297.25 278.523 300.492 278.523C302.68 278.523 304.164 277.586 304.789 276.336H309.672C308.773 280.008 305.375 282.43 300.453 282.43ZM295.102 269.383H305.102C305.062 266.492 303.148 264.383 300.258 264.383C297.25 264.383 295.258 266.668 295.102 269.383Z" fill="#E9FCB3"/>
<circle cx="356.5" cy="294.5" r="2.5" fill="#F5FEDE"/>
<circle cx="356.5" cy="294.5" r="2.5" fill="#F5FEDE"/>
<g clip-path="url(#clip0_370_98)">
<path d="M156.049 721.159C192.528 721.159 222.1 691.587 222.1 655.107C222.1 618.628 192.528 589.056 156.049 589.056C119.569 589.056 89.9969 618.628 89.9969 655.107C89.9969 691.587 119.569 721.159 156.049 721.159Z" fill="#DFFA92"/>
<path d="M184.672 982.293H57.4792L86.2243 520.948L104.983 412.216L108.558 393.872C112.792 372.151 144.73 375.051 144.982 397.18C145.569 448.627 124.011 497.045 125.063 520.948C129.808 629.161 139.726 782.604 158.841 827.834C173.037 861.439 180.627 969.652 184.672 982.293Z" fill="#0D59A5"/>
<path d="M928.515 982.294H810.923L798.566 520.948L774.874 412.237C774.601 390.056 806.571 386.464 811.228 408.152C811.228 408.152 834.57 456.532 837.405 520.948C842.15 629.161 883.57 782.604 902.684 827.834C916.88 861.439 924.471 969.653 928.515 982.294Z" fill="#0D59A5"/>
<path d="M223.368 679.98C249.971 682.119 311.775 714.53 311.776 714.53C359.803 762.615 431.537 765.467 479.445 767.371C550.677 770.203 604.601 748.031 644.066 731.805C644.066 731.805 736.326 710.556 737.555 710.465C739.025 710.356 740.418 713.981 740.603 714.53C743.648 723.531 710.171 756.879 671.503 768.387C666.235 769.955 654.285 773.078 642.034 782.614C634.428 788.534 629.96 794.393 628.824 795.824C618.448 808.883 563.311 858.628 500.785 860.86C447.311 862.768 404.565 829.348 356.487 791.759C337.419 776.851 339.705 775.75 315.84 757.209C261.717 715.16 234.655 694.136 222.352 687.093C220.647 686.117 214.676 682.78 215.238 680.996C215.752 679.367 221.46 679.826 223.368 679.98Z" fill="white"/>
<path d="M215.237 682.012C215.054 682.012 214.869 681.963 214.703 681.859L82.3913 599.731C81.9145 599.435 81.7676 598.809 82.0638 598.332C82.3595 597.854 82.9867 597.707 83.463 598.004L215.774 680.133C216.251 680.429 216.398 681.056 216.102 681.532C215.909 681.842 215.577 682.012 215.237 682.012Z" fill="#ADADAD"/>
<path d="M737.556 711.481C737.189 711.481 736.835 711.283 736.654 710.936C736.394 710.438 736.587 709.824 737.084 709.564L851.549 649.784C852.048 649.524 852.66 649.716 852.92 650.214C853.18 650.711 852.987 651.325 852.489 651.585L738.025 711.366C737.875 711.445 737.714 711.481 737.556 711.481Z" fill="#ADADAD"/>
<path d="M45 982.963C45 983.634 45.5386 984.172 46.2093 984.172H208.077C208.747 984.172 209.286 983.634 209.286 982.963C209.286 982.293 208.747 981.754 208.077 981.754H46.2093C45.5386 981.754 45 982.293 45 982.963Z" fill="#3F3D56"/>
<path d="M769.536 982.963C769.536 983.634 770.075 984.172 770.746 984.172H943.791C944.461 984.172 945 983.634 945 982.963C945 982.293 944.461 981.754 943.791 981.754H770.746C770.075 981.754 769.536 982.293 769.536 982.963Z" fill="#3F3D56"/>
<path d="M446.391 982.963C446.391 983.634 446.93 984.172 447.6 984.172H620.646C621.316 984.172 621.855 983.634 621.855 982.963C621.855 982.293 621.316 981.754 620.646 981.754H447.6C446.93 981.754 446.391 982.293 446.391 982.963Z" fill="#3F3D56"/>
<path d="M328.133 698.656C328.133 698.656 321.646 708.849 326.981 714.85C332.317 720.852 364.574 744.763 364.574 744.763C364.574 744.763 384.895 757.223 382.905 740.063C380.915 722.903 351.946 704.538 351.946 704.538L328.133 698.656Z" fill="#E6E6E6"/>
<path d="M380.863 671.682C377.393 671.347 374.154 675.496 373.628 680.95C373.388 683.126 373.672 685.328 374.458 687.371L373.939 693.559L373.832 693.57L366.607 721.985C364.928 728.592 366.299 735.67 370.553 740.998C373.083 744.167 376.063 746.101 378.775 743.243C383.276 738.501 383.133 715.329 382.658 702.078L384.149 688.306C385.311 686.45 386.012 684.343 386.193 682.16C386.719 676.708 384.333 672.017 380.863 671.682Z" fill="#FFB6B6"/>
<path d="M391.192 670.452L391.154 670.025C391.126 669.685 390.974 669.378 390.736 669.169C390.498 668.961 390.194 668.884 389.899 668.939L375.602 672.075C375.308 672.141 375.061 672.338 374.899 672.623C374.747 672.919 374.699 673.27 374.775 673.599L374.908 674.169L375.859 678.259L379.528 694.048C379.661 694.618 380.127 694.991 380.622 694.947C380.669 694.947 380.707 694.947 380.755 694.936L392.057 692.37C392.171 692.348 392.276 692.305 392.371 692.239C392.732 692.009 392.951 691.548 392.913 691.055L391.192 670.452Z" fill="#F5FEDE"/>
<path d="M390.915 668.072C390.711 668.078 390.438 668.088 390.11 668.104C390.176 667.905 390.187 667.68 390.125 667.459L389.693 665.929C389.581 665.531 389.262 665.262 388.899 665.259C386.741 665.246 379.345 665.44 375.018 668.525C374.748 668.718 374.599 669.076 374.631 669.441L374.775 671.121C374.793 671.328 374.867 671.513 374.976 671.658C374.607 671.833 374.24 672.015 373.878 672.207C373.65 672.328 373.508 672.594 373.511 672.882L373.519 673.606C373.524 674.065 373.889 674.406 374.279 674.317L391.356 670.423C391.744 670.335 391.969 669.863 391.826 669.437L391.524 668.541C391.427 668.252 391.184 668.065 390.915 668.072Z" fill="#3F3D56"/>
<path d="M346.731 690.752L342.345 705.006L323.706 700.62L322.609 677.595L346.731 690.752Z" fill="#FFB6B6"/>
<path d="M320.416 697.331L344.538 699.524L354.204 708.965L367.564 720.357C367.564 720.357 375.239 731.321 373.046 745.575L386.204 756.54L353.31 790.263L311.644 755.443C311.644 755.443 297.391 712.681 320.416 697.331Z" fill="#E6E6E6"/>
<path d="M377.432 757.636L387.007 756.539L402.547 757.636L453.602 727.232C460.024 723.408 468.323 725.406 472.301 731.734L513.393 797.108L500.236 805.88L459.667 764.215L409.074 805.88C409.074 805.88 357.696 832.756 353.31 790.262L377.432 757.636Z" fill="#2F2E41"/>
<path d="M409.229 796.012L491.464 788.337L569.313 808.073L573.699 791.626L467.342 753.25L428.966 763.118L409.229 796.012Z" fill="#2F2E41"/>
<path d="M317.006 706.247C317.006 706.247 309.46 715.683 314.12 722.224C318.78 728.764 348.28 756.003 348.28 756.003C348.28 756.003 367.144 770.575 367.01 753.3C366.876 736.026 340.049 714.654 340.049 714.654L317.006 706.247Z" fill="#E6E6E6"/>
<path d="M340.337 691.44C351.834 691.44 361.155 682.12 361.155 670.623C361.155 659.125 351.834 649.805 340.337 649.805C328.84 649.805 319.519 659.125 319.519 670.623C319.519 682.12 328.84 691.44 340.337 691.44Z" fill="#FFB6B6"/>
<path d="M359.529 667.044C354.19 667.031 353.886 667.067 353.023 667.044C346.401 666.87 344.669 664.264 341.313 664.442C335.322 664.759 343.229 694.794 346.517 708.68C349.742 722.298 338.843 734.501 338.06 735.353C326.997 747.384 307.565 749.584 304.231 744.461C301.532 740.314 311.097 734.008 308.785 724.944C306.525 716.083 296.089 717.027 293.171 708.68C290.116 699.938 300.383 695.53 306.833 674.2C310.538 661.951 309.882 659.668 313.339 652.081C322.578 631.802 367.865 640.436 362.781 659.237C361.798 662.874 364.415 667.056 359.529 667.044Z" fill="#2F2E41"/>
<path d="M216.763 680.488C243.366 682.627 304.701 727.176 304.702 727.176C352.729 775.262 424.463 778.113 472.371 780.018C543.603 782.849 597.527 760.678 636.992 744.452C636.992 744.451 718.76 757.75 728.448 726.16C728.541 725.859 729.252 723.203 730.481 723.112C731.951 723.003 733.344 726.628 733.529 727.176C736.574 736.178 703.097 769.525 664.429 781.034C659.161 782.602 647.211 785.725 634.96 795.261C627.354 801.181 622.886 807.04 621.75 808.471C611.374 821.53 556.237 871.275 493.711 873.506C440.237 875.415 397.491 841.995 349.413 804.406C330.345 789.498 332.631 788.397 308.766 769.856C254.642 727.807 227.581 706.783 215.278 699.74C213.573 698.763 211.119 681.256 211.682 679.472C212.196 677.843 214.855 680.335 216.763 680.488Z" fill="white"/>
<path d="M430.756 789.17C432.301 786.045 429.573 781.544 424.66 779.116C422.711 778.119 420.552 777.603 418.363 777.612L412.763 774.93L412.79 774.827L388.791 757.985C383.211 754.069 376.106 752.838 369.616 754.923C365.755 756.164 362.889 758.263 364.598 761.813C367.433 767.704 389.146 775.797 401.703 780.057L414.048 786.34C415.371 788.086 417.092 789.489 419.068 790.432C423.978 792.861 429.211 792.295 430.756 789.17Z" fill="#FFB6B6"/>
<path d="M565.513 633.144C565.513 633.144 557.617 617.353 559.196 603.142L532.919 616.762L533.931 642.618L565.513 633.144Z" fill="#A0616A"/>
<path d="M542.302 624.055C555.393 624.055 566.006 613.443 566.006 600.351C566.006 587.26 555.393 576.647 542.302 576.647C529.21 576.647 518.598 587.26 518.598 600.351C518.598 613.443 529.21 624.055 542.302 624.055Z" fill="#A0616A"/>
<path d="M573.419 972.595L558.954 972.593L552.074 916.801L573.422 916.802L573.419 972.595Z" fill="#A0616A"/>
<path d="M523.862 972.267C523.411 973.025 523.174 975.473 523.174 976.356C523.174 979.067 525.372 981.265 528.083 981.265H572.878C574.728 981.265 576.227 979.765 576.227 977.916V976.051C576.227 976.051 578.443 970.446 573.881 963.537C573.881 963.537 568.21 968.947 559.738 960.474L557.239 955.947L539.153 969.175L529.128 970.409C526.935 970.679 524.99 970.367 523.862 972.267Z" fill="#2F2E41"/>
<path d="M530.773 633.143L565.513 628.406L592.357 641.039L593.936 738.94C593.936 738.94 527.901 746.836 517.494 736.572C507.087 726.308 514.983 644.197 514.983 644.197L530.773 633.143Z" fill="#E6E6E6"/>
<path d="M548.231 606.39H554.603C554.603 606.39 560.132 599.584 559.388 603.731C558.644 607.877 561.62 612.34 561.62 612.34L566.083 610.853C566.083 610.853 575.009 573.321 548.231 571.26C521.453 569.198 515.502 590.025 515.502 590.025C515.502 590.025 516.99 600.439 519.965 597.464C522.94 594.488 539.305 593.001 539.305 593.001L548.231 606.39Z" fill="#2F2E41"/>
<path d="M514.691 862.132L501.462 867.981L472.601 819.741L492.125 811.106L514.691 862.132Z" fill="#A0616A"/>
<path d="M469.236 881.878C469.131 882.754 469.904 885.089 470.261 885.896C471.357 888.375 474.256 889.497 476.736 888.4L517.703 870.28C519.394 869.532 520.159 867.554 519.411 865.862L518.657 864.157C518.657 864.157 518.416 858.134 511.449 853.661C511.449 853.661 508.451 860.902 497.275 856.581L493.159 853.452L481.969 872.865L473.3 878.049C471.404 879.183 469.499 879.684 469.236 881.878Z" fill="#2F2E41"/>
<path d="M589.198 729.467L593.936 743.79V793.027L578.462 837.632L579.724 941.633H551.96L548.827 835.55L551.301 783.155L532.352 775.26L482.581 778.331L505.856 835.55L480.243 852.633C480.243 852.633 441.936 765.331 447.667 756.873C453.399 748.416 520.509 733.495 520.509 733.495C520.509 733.495 589.198 731.046 589.198 729.467Z" fill="#2F2E41"/>
<path d="M603.41 672.62L611.044 685.124C611.044 685.124 621.836 727.542 611.044 727.715C600.252 727.887 578.462 706.097 578.462 706.097L581.303 694.727L589.198 697.885L587.619 672.62H603.41Z" fill="#A0616A"/>
<path d="M579.724 640.84C579.724 640.84 604.989 636.389 607.358 652.925C609.726 669.462 611.044 685.124 611.044 685.124L583.672 687.391L579.724 640.84Z" fill="#E6E6E6"/>
<path d="M585.208 704.707C587.492 701.5 584.144 695.198 577.73 690.63C571.317 686.062 564.266 684.958 561.982 688.165C559.698 691.372 563.046 697.675 569.459 702.243C575.873 706.811 582.924 707.914 585.208 704.707Z" fill="#A0616A"/>
<path d="M545.675 666.894L545.617 666.245C545.574 665.729 545.343 665.262 544.982 664.946C544.621 664.63 544.159 664.513 543.711 664.596L522.001 669.358C521.553 669.458 521.178 669.758 520.932 670.191C520.701 670.64 520.629 671.173 520.745 671.673L520.947 672.539L522.39 678.749L527.962 702.726C528.165 703.591 528.872 704.157 529.622 704.091C529.695 704.091 529.752 704.091 529.825 704.074L546.988 700.178C547.162 700.145 547.32 700.078 547.465 699.978C548.013 699.629 548.345 698.929 548.288 698.18L545.675 666.894Z" fill="#DFFA92"/>
<path d="M545.254 663.28C544.944 663.288 544.529 663.303 544.031 663.329C544.131 663.026 544.148 662.684 544.054 662.35L543.398 660.025C543.227 659.422 542.743 659.012 542.193 659.009C538.916 658.989 527.685 659.283 521.114 663.968C520.703 664.261 520.478 664.804 520.525 665.359L520.744 667.91C520.772 668.225 520.883 668.505 521.049 668.725C520.489 668.991 519.932 669.267 519.381 669.56C519.036 669.743 518.82 670.147 518.825 670.585L518.837 671.683C518.845 672.38 519.399 672.899 519.992 672.764L545.923 666.851C546.513 666.716 546.854 665.999 546.637 665.353L546.179 663.992C546.031 663.553 545.662 663.269 545.254 663.28Z" fill="#3F3D56"/>
<path d="M496.731 673.637L489.097 686.14C489.097 686.14 478.304 728.559 489.097 728.731C499.889 728.904 521.679 707.114 521.679 707.114L518.838 695.744L510.942 698.902L512.521 673.637H496.731Z" fill="#A0616A"/>
<path d="M520.417 641.857C520.417 641.857 495.152 637.405 492.783 653.942C490.415 670.479 489.097 686.14 489.097 686.14L516.469 688.408L520.417 641.857Z" fill="#E6E6E6"/>
<path d="M530.681 703.259C537.095 698.691 540.443 692.388 538.159 689.181C535.875 685.975 528.824 687.078 522.41 691.646C515.997 696.214 512.649 702.517 514.933 705.724C517.217 708.93 524.268 707.827 530.681 703.259Z" fill="#A0616A"/>
<circle cx="600.188" cy="390.812" r="2.8125" fill="#F5FEDE"/>
<circle cx="734.062" cy="467.312" r="2.8125" fill="#F5FEDE"/>
<circle cx="398.812" cy="420.062" r="2.8125" fill="#F5FEDE"/>
<circle cx="309.938" cy="553.938" r="2.8125" fill="#F5FEDE"/>
</g>
<ellipse cx="131.472" cy="372.474" rx="3.33686" ry="2.66433" fill="#F5FEDE"/>
<ellipse cx="824.206" cy="315.99" rx="3.33686" ry="2.66433" fill="#F5FEDE"/>
<ellipse cx="673.379" cy="201.956" rx="3.33686" ry="2.66433" fill="#F5FEDE"/>
<defs>
<linearGradient id="paint0_linear_370_98" x1="472.5" y1="0" x2="472.5" y2="989" gradientUnits="userSpaceOnUse">
<stop stop-color="#0A2040"/>
<stop offset="1" stop-color="#304563"/>
</linearGradient>
<clipPath id="clip0_370_98">
<rect width="900" height="605.173" fill="white" transform="translate(45 379)"/>
</clipPath>
</defs>
</svg>
