<svg width="38" height="38" viewBox="0 0 38 38" fill="none" xmlns="http://www.w3.org/2000/svg">
<rect width="38" height="38" rx="19" fill="#C7C7C7"/>
<path fill-rule="evenodd" clip-rule="evenodd" d="M22.75 12.7316V12.9208C23.8325 13.0198 24.9106 13.1621 25.9817 13.3475C26.0625 13.3615 26.1399 13.3913 26.2092 13.4352C26.2786 13.479 26.3386 13.5362 26.3859 13.6033C26.4332 13.6703 26.4668 13.7461 26.4848 13.8262C26.5028 13.9062 26.5048 13.9891 26.4908 14.07C26.4768 14.1508 26.447 14.2282 26.4031 14.2975C26.3593 14.3669 26.3021 14.4269 26.235 14.4742C26.1679 14.5215 26.0922 14.5551 26.0121 14.5731C25.932 14.5911 25.8492 14.5931 25.7683 14.5791L25.5942 14.55L24.7567 25.4416C24.7084 26.0696 24.4248 26.6562 23.9627 27.0842C23.5006 27.5122 22.894 27.7499 22.2642 27.75H15.7367C15.1068 27.7499 14.5002 27.5122 14.0381 27.0842C13.576 26.6562 13.2925 26.0696 13.2442 25.4416L12.4058 14.55L12.2317 14.5791C12.1508 14.5931 12.068 14.5911 11.9879 14.5731C11.9078 14.5551 11.8321 14.5215 11.765 14.4742C11.6295 14.3787 11.5375 14.2333 11.5092 14.07C11.4809 13.9066 11.5186 13.7387 11.6141 13.6033C11.7096 13.4678 11.855 13.3757 12.0183 13.3475C13.0894 13.1619 14.1675 13.0196 15.25 12.9208V12.7316C15.25 11.4283 16.2608 10.315 17.5967 10.2725C18.5323 10.2425 19.4686 10.2425 20.4042 10.2725C21.74 10.315 22.75 11.4283 22.75 12.7316ZM17.6367 11.5216C18.5456 11.4926 19.4552 11.4926 20.3642 11.5216C20.9917 11.5416 21.5 12.07 21.5 12.7316V12.8258C19.8349 12.7247 18.1651 12.7247 16.5 12.8258V12.7316C16.5 12.07 17.0075 11.5416 17.6367 11.5216ZM17.3408 16.4758C17.3377 16.3937 17.3184 16.3131 17.284 16.2385C17.2497 16.1638 17.201 16.0967 17.1407 16.0409C17.0804 15.9851 17.0097 15.9418 16.9327 15.9133C16.8556 15.8848 16.7737 15.8718 16.6917 15.875C16.6096 15.8781 16.5289 15.8974 16.4543 15.9318C16.3797 15.9661 16.3126 16.0148 16.2568 16.0751C16.201 16.1354 16.1576 16.2061 16.1292 16.2831C16.1007 16.3601 16.0877 16.442 16.0908 16.5241L16.38 24.0241C16.3864 24.1898 16.4584 24.3461 16.58 24.4587C16.6403 24.5144 16.7109 24.5578 16.7879 24.5862C16.8649 24.6147 16.9467 24.6277 17.0288 24.6245C17.1108 24.6214 17.1914 24.6021 17.2659 24.5677C17.3405 24.5334 17.4076 24.4848 17.4633 24.4245C17.5191 24.3643 17.5624 24.2936 17.5909 24.2166C17.6193 24.1397 17.6323 24.0578 17.6292 23.9758L17.3408 16.4758ZM21.9075 16.5241C21.9136 16.4405 21.9028 16.3564 21.8758 16.277C21.8487 16.1977 21.806 16.1245 21.7501 16.062C21.6942 15.9995 21.6262 15.9488 21.5504 15.9131C21.4745 15.8774 21.3922 15.8573 21.3083 15.8541C21.2245 15.8508 21.1409 15.8645 21.0625 15.8942C20.9841 15.924 20.9124 15.9692 20.8519 16.0272C20.7913 16.0852 20.743 16.1548 20.7099 16.2319C20.6768 16.309 20.6595 16.3919 20.6592 16.4758L20.37 23.9758C20.3636 24.1416 20.4233 24.3031 20.536 24.4248C20.6487 24.5466 20.8051 24.6185 20.9708 24.625C21.1366 24.6314 21.2981 24.5717 21.4199 24.459C21.5416 24.3463 21.6136 24.1899 21.62 24.0241L21.9075 16.5241Z" fill="#FAFAFA"/>
</svg>
