<svg width="30" height="30" viewBox="0 0 30 30" fill="none" xmlns="http://www.w3.org/2000/svg">
<rect width="30" height="30" rx="15" fill="#0B2447"/>
<path d="M18.2413 9.99125L19.366 8.86592C19.6005 8.63147 19.9184 8.49976 20.25 8.49976C20.5816 8.49976 20.8995 8.63147 21.134 8.86592C21.3685 9.10037 21.5002 9.41836 21.5002 9.74992C21.5002 10.0815 21.3685 10.3995 21.134 10.6339L14.0547 17.7133C13.7022 18.0655 13.2676 18.3244 12.79 18.4666L11 18.9999L11.5333 17.2099C11.6755 16.7323 11.9344 16.2977 12.2867 15.9453L18.2413 9.99125ZM18.2413 9.99125L20 11.7499M19 16.3333V19.4999C19 19.8977 18.842 20.2793 18.5607 20.5606C18.2794 20.8419 17.8978 20.9999 17.5 20.9999H10.5C10.1022 20.9999 9.72064 20.8419 9.43934 20.5606C9.15804 20.2793 9 19.8977 9 19.4999V12.4999C9 12.1021 9.15804 11.7206 9.43934 11.4393C9.72064 11.158 10.1022 10.9999 10.5 10.9999H13.6667" stroke="#C7C7C7" stroke-linecap="round" stroke-linejoin="round"/>
</svg>
